<svg version="1.1" xmlns="http://www.w3.org/2000/svg" xmlns:xlink="http://www.w3.org/1999/xlink" width="48" height="48"><defs><linearGradient x1="14.2299" y1="18.67085" x2="53.21554" y2="48.77458" gradientUnits="userSpaceOnUse" id="color-1"><stop offset="0" stop-color="#000000" stop-opacity="0"></stop><stop offset="1" stop-color="#000000" stop-opacity="0"></stop></linearGradient><filter id="dropshadow-base"><feColorMatrix type="matrix" values="0 0 0 0 0  0 0 0 0 0  0 0 0 0 0  0 0 0 .8 0"></feColorMatrix> <feOffset dx="0" dy="1"></feOffset> <feGaussianBlur stdDeviation="1"></feGaussianBlur> <feComposite in="SourceGraphic"></feComposite></filter><filter id="dropshadow-banner" x="-10%" y="-10%" width="120%" height="130%"><feColorMatrix type="matrix" values="0 0 0 0 0  0 0 0 0 0  0 0 0 0 0  0 0 0 .4 0"></feColorMatrix> <feOffset dx="0" dy="1"></feOffset> <feGaussianBlur stdDeviation="0.5"></feGaussianBlur> <feComposite in="SourceGraphic"></feComposite></filter></defs><g fill="none" fill-rule="nonzero" stroke="none" stroke-width="none" stroke-linecap="butt" stroke-linejoin="miter" stroke-miterlimit="10" stroke-dasharray="" stroke-dashoffset="0" font-family="none" font-weight="none" font-size="none" text-anchor="none" style="mix-blend-mode: normal"><path d="M7,43c-1.10457,0 -2,-0.89543 -2,-2v-34c0,-1.10457 0.89543,-2 2,-2h34c1.10457,0 2,0.89543 2,2v34c0,1.10457 -0.89543,2 -2,2z" id="base 1 5 1 1" fill="#c4dbe0" stroke-width="1"></path><path d="M41.04084,42.66179l-0.33747,0.33821l-11.75899,0l-14.19267,-14.19267c-0.32197,-0.32197 -0.52181,-0.76606 -0.52181,-1.25457c0,-0.97701 0.79937,-1.77638 1.77638,-1.77638c0.15988,0 0.31087,0.01776 0.45298,0.06218l4.05015,-4.04127c-0.04441,-0.14211 -0.06218,-0.30198 -0.06218,-0.46186c0,-0.97701 0.79937,-1.77638 1.77638,-1.77638c0.48851,0 0.9326,0.19984 1.25457,0.52181l3.81455,3.81455l2.98678,-2.99519c-0.04441,-0.14211 -0.06218,-0.2931 -0.06218,-0.45298c0,-0.97701 0.79937,-1.77638 1.77638,-1.77638c0.48851,0 0.9326,0.19984 1.25457,0.52181l9.75171,9.75171v12.05562c0,0.98561 -0.71294,1.8047 -1.65125,1.9697z" fill="url(#color-1)" stroke-width="1"></path><path transform="translate(0.55174,0.55174) scale(0.97701,0.97701)" d="M34,20.36364c0,1 -0.81818,1.81818 -1.81818,1.81818c-0.16364,0 -0.31818,-0.01818 -0.46364,-0.06364l-3.23636,3.22727c0.04545,0.14545 0.06364,0.30909 0.06364,0.47273c0,1 -0.81818,1.81818 -1.81818,1.81818c-1,0 -1.81818,-0.81818 -1.81818,-1.81818c0,-0.16364 0.01818,-0.32727 0.06364,-0.47273l-2.31818,-2.31818c-0.14545,0.04545 -0.30909,0.06364 -0.47273,0.06364c-0.16364,0 -0.32727,-0.01818 -0.47273,-0.06364l-4.13636,4.14545c0.04545,0.14545 0.06364,0.3 0.06364,0.46364c0,1 -0.81818,1.81818 -1.81818,1.81818c-1,0 -1.81818,-0.81818 -1.81818,-1.81818c0,-1 0.81818,-1.81818 1.81818,-1.81818c0.16364,0 0.31818,0.01818 0.46364,0.06364l4.14545,-4.13636c-0.04545,-0.14545 -0.06364,-0.30909 -0.06364,-0.47273c0,-1 0.81818,-1.81818 1.81818,-1.81818c1,0 1.81818,0.81818 1.81818,1.81818c0,0.16364 -0.01818,0.32727 -0.06364,0.47273l2.31818,2.31818c0.14545,-0.04545 0.30909,-0.06364 0.47273,-0.06364c0.16364,0 0.32727,0.01818 0.47273,0.06364l3.22727,-3.23636c-0.04545,-0.14545 -0.06364,-0.3 -0.06364,-0.46364c0,-1 0.81818,-1.81818 1.81818,-1.81818c1,0 1.81818,0.81818 1.81818,1.81818z" fill="none" stroke-width="0"></path><path d="M33.77011,20.44723c0,0.97701 -0.79937,1.77638 -1.77638,1.77638c-0.15987,0 -0.31087,-0.01776 -0.45298,-0.06217l-3.16196,3.15308c0.04441,0.14211 0.06217,0.30199 0.06217,0.46186c0,0.97701 -0.79937,1.77638 -1.77638,1.77638c-0.97701,0 -1.77638,-0.79937 -1.77638,-1.77638c0,-0.15987 0.01776,-0.31975 0.06217,-0.46186l-2.26489,-2.26489c-0.14211,0.04441 -0.30199,0.06217 -0.46186,0.06217c-0.15987,0 -0.31975,-0.01776 -0.46186,-0.06217l-4.04127,4.05015c0.04441,0.14211 0.06217,0.2931 0.06217,0.45298c0,0.97701 -0.79937,1.77638 -1.77638,1.77638c-0.97701,0 -1.77638,-0.79937 -1.77638,-1.77638c0,-0.97701 0.79937,-1.77638 1.77638,-1.77638c0.15987,0 0.31087,0.01776 0.45298,0.06217l4.05015,-4.04127c-0.04441,-0.14211 -0.06217,-0.30199 -0.06217,-0.46186c0,-0.97701 0.79937,-1.77638 1.77638,-1.77638c0.97701,0 1.77638,0.79937 1.77638,1.77638c0,0.15987 -0.01776,0.31975 -0.06217,0.46186l2.26489,2.26489c0.14211,-0.04441 0.30199,-0.06217 0.46186,-0.06217c0.15987,0 0.31975,0.01776 0.46186,0.06217l3.15308,-3.16196c-0.04441,-0.14211 -0.06217,-0.2931 -0.06217,-0.45298c0,-0.97701 0.79937,-1.77638 1.77638,-1.77638c0.97701,0 1.77638,0.79937 1.77638,1.77638z" fill="#0c6980" stroke-width="0"></path><path d="M2,24c0,-12.15026 9.84974,-22 22,-22c12.15026,0 22,9.84974 22,22c0,12.15026 -9.84974,22 -22,22c-12.15026,0 -22,-9.84974 -22,-22z" id="base 1 1 1" fill="none" stroke-width="1"></path><g fill="#000000" stroke-width="1" font-family="Roboto, sans-serif" font-weight="400" font-size="14" text-anchor="start"></g><rect x="2" y="2" width="44" height="22" fill="none" stroke-width="1"></rect><path d="M2,24v-22h44v22z" fill="none" stroke-width="1"></path><path d="M2,24v-22h44v22z" fill="none" stroke-width="1"></path><path d="M2,24v-22h44v22z" fill="none" stroke-width="1"></path><path d="M2,24v-22h44v22z" fill="none" stroke-width="1"></path></g></svg>